<svg height="508pt" viewBox="-5 0 508 508.998" width="508pt" xmlns="http://www.w3.org/2000/svg"><path d="m221.558594 293.839844h55.320312v168.320312h-55.320312zm0 0" fill="#d8d6d7"/><path d="m255.398438 293.839844h21.480468v168.320312h-21.480468zm0 0" fill="#fff"/><path d="m376.558594 472.160156v23.339844c0 5.519531-4.480469 10-10 10h-202.679688c-5.519531 0-10-4.480469-10-10v-23.339844c0-5.519531 4.480469-10 10-10h202.679688c5.519531 0 10 4.480469 10 10zm0 0" fill="#fff"/><path d="m483.9375 330.292969h-469.4375c-5.523438 0-10-4.476563-10-10v-305.792969c0-5.523438 4.476562-10 10-10h469.4375c5.523438 0 10 4.476562 10 10v305.792969c0 5.523437-4.476562 10-10 10zm0 0" fill="#d8d6d7"/><path d="m467.9375 40.5v253.800781c0 5.519531-4.476562 10-10 10h-417.4375c-5.519531 0-10-4.480469-10-10v-253.800781c0-5.519531 4.480469-10 10-10h417.4375c5.523438 0 10 4.480469 10 10zm0 0" fill="#56c1b3"/><path d="m467.9375 40.5v253.800781c0 5.519531-4.476562 10-10 10h-373.9375c-5.519531 0-10-4.480469-10-10v-253.800781c0-5.519531 4.480469-10 10-10h373.9375c5.523438 0 10 4.480469 10 10zm0 0" fill="#7befe4"/><path d="m429.820312 142.980469h-18.980468c-1.660156-5.582031-3.878906-11.019531-6.722656-16.21875l13.421874-13.421875c3.28125-3.261719 3.28125-8.578125 0-11.859375l-21.960937-21.921875c-3.277344-3.277344-8.558594-3.277344-11.859375 0l-13.398438 13.421875c-5.222656-2.859375-10.660156-5.082031-16.242187-6.71875v-18.980469c0-4.621094-3.757813-8.382812-8.378906-8.382812h-31.019531c-4.640626 0-8.402344 3.761718-8.402344 8.382812v18.980469c-5.578125 1.636719-11 3.878906-16.199219 6.71875l-13.4375-13.421875c-3.261719-3.277344-8.582031-3.277344-11.839844 0l-21.941406 21.921875c-3.28125 3.28125-3.28125 8.597656 0 11.859375l13.417969 13.421875c-3.078125 5.660156-5.4375 11.578125-7.117188 17.679687h-18.582031c-4.617187 0-8.378906 3.757813-8.378906 8.359375v31.039063c0 4.640625 3.761719 8.378906 8.378906 8.378906h19.441406c1.558594 5.082031 3.660157 10.042969 6.257813 14.78125l-13.417969 13.421875c-3.28125 3.277344-3.28125 8.578125 0 11.859375l21.941406 21.957031c3.257813 3.261719 8.578125 3.261719 11.839844 0l13.4375-13.4375c5.199219 2.839844 10.621094 5.078125 16.199219 6.738281v18.960938c0 4.640625 3.761718 8.398438 8.402344 8.398438h31.019531c4.621093 0 8.378906-3.757813 8.378906-8.398438v-18.960938c5.582031-1.660156 11.039063-3.898437 16.242187-6.738281l13.398438 13.4375c3.300781 3.261719 8.582031 3.261719 11.859375 0l21.960937-21.957031c3.28125-3.28125 3.28125-8.582031 0-11.859375l-13.421874-13.402344c2.84375-5.199219 5.0625-10.660156 6.722656-16.238281h18.980468c4.617188 0 8.378907-3.761719 8.378907-8.382812v-31.019532c0-4.640625-3.761719-8.398437-8.378907-8.398437zm-99.621093 74.898437c-28.261719 0-50.980469-22.9375-50.980469-50.980468 0-28.296876 22.960938-50.976563 50.980469-50.976563 28.160156 0 50.980469 22.816406 50.980469 50.976563 0 28.242187-22.902344 50.980468-50.980469 50.980468zm0 0" fill="#f85252"/><path d="m376.558594 472.160156v23.339844c0 5.519531-4.480469 10-10 10h-234.679688c-5.519531 0-10-4.480469-10-10v-23.339844c0-5.519531 4.480469-10 10-10h234.679688c5.519531 0 10 4.480469 10 10zm0 0" fill="#d8d6d7"/><path d="m376.558594 472.160156v23.339844c0 5.519531-4.480469 10-10 10h-202.679688c-5.519531 0-10-4.480469-10-10v-23.339844c0-5.519531 4.480469-10 10-10h202.679688c5.519531 0 10 4.480469 10 10zm0 0" fill="#fff"/><path d="m222.199219 152.800781v31.039063c0 4.640625 3.761719 8.378906 8.378906 8.378906h19.441406c1.558594 5.082031 3.660157 10.042969 6.257813 14.78125l-8.417969 8.421875h-177.621094c-5.519531 0-10-4.480469-10-10v-75.960937c0-5.519532 4.480469-10 10-10h178.742188l7.296875 7.300781c-3.078125 5.660156-5.4375 11.578125-7.136719 17.679687h-18.5625c-4.617187 0-8.378906 3.757813-8.378906 8.359375zm0 0" fill="#fff"/><g fill="#491352"><path d="m483.9375 0h-469.4375c-7.722656 0-14 6.28125-14 14v305.792969c0 7.71875 6.277344 14 14 14h203.058594v123.863281h-85.671875c-7.722657 0-14 6.28125-14 14v23.339844c0 7.722656 6.277343 14 14 14h234.664062c7.71875 0 14-6.277344 14-14v-23.339844c0-7.71875-6.28125-14-14-14h-85.671875v-123.863281h203.058594c7.722656 0 14-6.28125 14-14v-305.792969c0-7.71875-6.277344-14-14-14zm-117.382812 465.65625c3.304687 0 6 2.695312 6 6v23.34375c0 3.308594-2.695313 6-6 6h-234.667969c-3.308594 0-6-2.691406-6-6v-23.34375c0-3.304688 2.691406-6 6-6h85.671875v.003906h63.320312v-.003906zm-93.675782-8h-47.320312v-123.863281h47.320312zm217.058594-137.863281c0 3.308593-2.691406 6-6 6h-469.4375c-3.308594 0-6-2.691407-6-6v-305.792969c0-3.308594 2.691406-6 6-6h469.4375c3.308594 0 6 2.691406 6 6zm0 0"/><path d="m457.9375 26h-417.4375c-7.722656 0-14 6.28125-14 14v253.792969c0 7.71875 6.277344 14 14 14h417.4375c7.722656 0 14-6.28125 14-14v-253.792969c0-7.71875-6.277344-14-14-14zm6 267.792969c0 3.308593-2.691406 6-6 6h-417.4375c-3.308594 0-6-2.691407-6-6v-253.792969c0-3.308594 2.691406-6 6-6h417.4375c3.308594 0 6 2.691406 6 6zm0 0"/><path d="m330.203125 111.910156c-30.320313 0-54.984375 24.667969-54.984375 54.988282 0 30.3125 24.664062 54.976562 54.984375 54.976562 30.3125 0 54.976563-24.664062 54.976563-54.976562-.003907-30.320313-24.664063-54.988282-54.976563-54.988282zm0 101.964844c-25.90625 0-46.984375-21.074219-46.984375-46.976562 0-25.910157 21.078125-46.988282 46.984375-46.988282 25.902344 0 46.976563 21.078125 46.976563 46.988282-.003907 25.902343-21.074219 46.976562-46.976563 46.976562zm0 0"/><path d="m429.808594 138.984375h-16.035156c-1.320313-3.957031-2.914063-7.792969-4.753907-11.464844l11.335938-11.335937c2.339843-2.332032 3.628906-5.4375 3.632812-8.746094.003907-3.316406-1.285156-6.433594-3.628906-8.777344l-21.953125-21.925781c-4.820312-4.820313-12.671875-4.828125-17.511719 0l-11.332031 11.332031c-3.691406-1.847656-7.53125-3.4375-11.480469-4.75v-16.03125c0-6.832031-5.558593-12.386718-12.386719-12.386718h-31.019531c-6.832031 0-12.390625 5.554687-12.390625 12.386718v16.03125c-3.914062 1.304688-7.75 2.894532-11.460937 4.75l-11.339844-11.328125c-2.335937-2.34375-5.445313-3.632812-8.757813-3.632812s-6.421874 1.289062-8.75 3.625l-21.941406 21.929687c-2.34375 2.34375-3.628906 5.457032-3.628906 8.773438.003906 2.984375 1.0625 5.796875 2.976562 8.027344h-169.144531c-7.71875 0-14 6.277343-14 14v75.960937c0 7.71875 6.28125 14 14 14h168.308594c-3.257813 4.816406-2.769531 11.429687 1.484375 15.683594l21.945312 21.957031c2.332032 2.332031 5.4375 3.617188 8.75 3.617188 3.308594 0 6.417969-1.285157 8.75-3.617188l11.347657-11.347656c3.679687 1.839844 7.515625 3.429687 11.460937 4.753906v16.039062c0 6.832032 5.558594 12.386719 12.390625 12.386719h31.019531c6.832032 0 12.386719-5.554687 12.386719-12.386719v-16.039062c3.96875-1.332031 7.8125-2.921875 11.484375-4.753906l11.335938 11.355468c4.835937 4.796876 12.683594 4.792969 17.503906-.011718l21.953125-21.953125c4.820313-4.820313 4.824219-12.671875 0-17.515625l-11.339844-11.320313c1.839844-3.675781 3.433594-7.523437 4.753907-11.488281h16.035156c6.832031 0 12.386718-5.558594 12.386718-12.390625v-31.019531c.003907-6.828125-5.554687-12.386719-12.386718-12.386719zm-365.570313 66.4375v-75.960937c0-3.308594 2.691407-6 6-6h177.074219l4.054688 4.058593c-1.886719 3.773438-3.488282 7.710938-4.820313 11.761719-.128906.382812-.269531.765625-.390625 1.152344h-15.570312c-3.597657 0-6.832032 1.546875-9.09375 4.003906-2.039063 2.203125-3.292969 5.132812-3.292969 8.363281v31.042969c0 6.832031 5.554687 12.386719 12.386719 12.386719h16.527343c1.191407 3.410156 2.613281 6.761719 4.25 10.023437l-5.164062 5.167969h-175.960938c-3.308593 0-6-2.695313-6-6zm369.960938-23.027344c0 2.417969-1.96875 4.386719-4.386719 4.386719h-18.96875c-1.769531 0-3.332031 1.164062-3.832031 2.863281-1.609375 5.421875-3.765625 10.625-6.410157 15.460938-.851562 1.558593-.570312 3.492187.683594 4.75l13.417969 13.386719c1.710937 1.71875 1.710937 4.5.007813 6.210937l-21.953126 21.945313c-1.707031 1.707031-4.496093 1.703124-6.203124.007812l-13.398438-13.421875c-1.253906-1.253906-3.183594-1.535156-4.742188-.6875-4.832031 2.632813-10.042968 4.789063-15.476562 6.414063-1.691406.507812-2.851562 2.066406-2.851562 3.832031v18.96875c0 2.417969-1.96875 4.386719-4.390626 4.386719h-31.019531c-2.417969 0-4.386719-1.96875-4.386719-4.386719v-18.96875c0-1.765625-1.160156-3.324219-2.855468-3.832031-5.394532-1.613282-10.59375-3.769532-15.449219-6.414063-.601563-.328125-1.257813-.484375-1.910156-.484375-1.035157 0-2.058594.402344-2.828125 1.171875l-13.425782 13.421875c-1.644531 1.644531-4.542968 1.640625-6.183593 0l-21.945313-21.957031c-1.703125-1.707031-1.703125-4.492188.003906-6.203125l4.988282-4.996094c.003906-.003906.003906-.003906.003906-.003906l8.421875-8.421875c1.257813-1.253907 1.535156-3.191407.675781-4.75-2.460937-4.492188-4.460937-9.210938-5.941406-14.03125-.515625-1.679688-2.066406-2.828125-3.824219-2.828125h-19.441406c-2.414063 0-4.378906-1.960938-4.378906-4.378906v-31.027344c0-1.207032.492187-2.296875 1.285156-3.089844.792969-.789062 1.886719-1.277344 3.097656-1.277344h18.558594c.898437 0 1.746094-.304687 2.425781-.820312.679688-.519532 1.199219-1.253906 1.4375-2.125.335938-1.214844.71875-2.414063 1.109375-3.609375 1.515625-4.605469 3.40625-9.039063 5.679688-13.214844.847656-1.558594.566406-3.488281-.6875-4.738281l-7.296875-7.300782c-.015625-.015624-.035156-.023437-.050782-.039062l-6.074218-6.082031c-.824219-.820313-1.277344-1.914063-1.277344-3.085938 0-1.175781.453125-2.28125 1.28125-3.109375l21.949219-21.933594c1.640625-1.648437 4.527343-1.660156 6.183593.007813l13.425782 13.410156c1.253906 1.253907 3.183594 1.527344 4.738281.683594 4.917969-2.675781 10.113281-4.828125 15.433594-6.394531 1.699219-.5 2.867187-2.066406 2.867187-3.835938v-18.96875c0-2.417968 1.96875-4.386718 4.390625-4.386718h31.019531c2.417969 0 4.386719 1.96875 4.386719 4.386718v18.96875c0 1.773438 1.167969 3.335938 2.871094 3.835938 5.382813 1.585937 10.578125 3.734375 15.441406 6.390625 1.558594.851562 3.492188.574219 4.746094-.683594l13.40625-13.402344c1.714844-1.707031 4.5-1.710937 6.207031-.003906l21.953125 21.925781c.828125.828125 1.285157 1.933594 1.285157 3.109375 0 1.171875-.457032 2.265625-1.285157 3.09375l-13.421875 13.421875c-1.257812 1.253906-1.535156 3.191406-.679687 4.75 2.640625 4.824219 4.796875 10.015625 6.402343 15.429688.503907 1.699218 2.066407 2.863281 3.835938 2.863281h18.964844c2.421875 0 4.386718 1.96875 4.386718 4.386719v31.023437zm0 0"/><path d="m100.496094 139.207031-21.085938 57.988281h8.035156l4.6875-12.96875h25.4375l4.683594 12.96875h8.035156l-21.007812-57.988281zm-6.191406 38.828125 10.542968-29.457031 10.542969 29.457031zm0 0"/><path d="m158.3125 138.871094h-18.828125v58.324218h7.617187v-24.347656h11.210938c14.476562 0 20.167969-8.035156 20.167969-16.90625 0-9.539062-6.445313-17.070312-20.167969-17.070312zm0 27.699218h-11.214844v-21.421874h11.214844c8.699219 0 12.382812 4.015624 12.382812 10.792968 0 6.527344-3.679687 10.628906-12.382812 10.628906zm0 0"/><path d="m187.925781 138.871094h7.617188v58.324218h-7.617188zm0 0"/></g></svg>